<?xml version="1.0" encoding="UTF-8"?>
<svg id="schema-svg" width="958.6000000000001" height="668" viewBox="0 0 958.6000000000001 668" style="display: block;" xmlns="http://www.w3.org/2000/svg" xmlns:xlink="http://www.w3.org/1999/xlink"><rect x="0" y="0" width="958.6000000000001" height="668" fill="#ffffff"/><g><g cursor="pointer"><g><g text-anchor="middle"><rect x="0" y="0" width="62" height="22" fill="transparent" stroke="#2d5470" stroke-width="1" rx="3" ry="3"/><rect x="0" y="0" width="62" height="22" fill="rgba(29, 79, 112, 0.06)" rx="3" ry="3"/><g transform="translate(24 4)" cursor="pointer"><path d="M5 2 Q3 2 3 4.5 Q3 6.5 1.5 7 Q3 7.5 3 9.5 Q3 12 5 12" stroke="#1d4f70" fill="none" stroke-width="1.1" stroke-linecap="round" stroke-linejoin="round"/><path d="M9 2 Q11 2 11 4.5 Q11 6.5 12.5 7 Q11 7.5 11 9.5 Q11 12 9 12" stroke="#1d4f70" fill="none" stroke-width="1.1" stroke-linecap="round" stroke-linejoin="round"/></g></g></g></g><path d="M 62 11 H 86" stroke="#6a8ba8" stroke-width="1" stroke-opacity="0.65" stroke-linecap="round" fill="none"/><g><g cursor="pointer"><g text-anchor="middle"><rect x="86" y="0" width="216.60000000000002" height="22" fill="transparent" stroke="#2d5470" stroke-width="1" rx="3" ry="3"/><rect x="86" y="0" width="62" height="22" fill="rgba(29, 79, 112, 0.06)" rx="3" ry="3"/><g transform="translate(110 4)" cursor="pointer"><path d="M5 2 Q3 2 3 4.5 Q3 6.5 1.5 7 Q3 7.5 3 9.5 Q3 12 5 12" stroke="#1d4f70" fill="none" stroke-width="1.1" stroke-linecap="round" stroke-linejoin="round"/><path d="M9 2 Q11 2 11 4.5 Q11 6.5 12.5 7 Q11 7.5 11 9.5 Q11 12 9 12" stroke="#1d4f70" fill="none" stroke-width="1.1" stroke-linecap="round" stroke-linejoin="round"/></g><line stroke-width="1" stroke="#6a8ba8" stroke-linecap="round" x1="148" y1="4" x2="148" y2="18"/><text x="225.8" y="11.5" fill="#0e2233" font-family="'DM Mono', ui-monospace, monospace" font-size="11" font-weight="400" dominant-baseline="middle" cursor="pointer">AccountReference</text></g></g></g><path d="M 62 11 H 71 Q 74 11 74 14 V 38 Q 74 41 77 41 H 86" stroke="#6a8ba8" stroke-width="1" stroke-opacity="0.65" stroke-linecap="round" fill="none"/><g><g cursor="pointer"><g text-anchor="middle"><rect x="86" y="30" width="150.6" height="22" fill="transparent" stroke="#2d5470" stroke-width="1" rx="3" ry="3"/><rect x="86" y="30" width="62" height="22" fill="rgba(29, 79, 112, 0.06)" rx="3" ry="3"/><g transform="translate(110 34)" cursor="pointer"><path d="M5 2 Q3 2 3 4.5 Q3 6.5 1.5 7 Q3 7.5 3 9.5 Q3 12 5 12" stroke="#1d4f70" fill="none" stroke-width="1.1" stroke-linecap="round" stroke-linejoin="round"/><path d="M9 2 Q11 2 11 4.5 Q11 6.5 12.5 7 Q11 7.5 11 9.5 Q11 12 9 12" stroke="#1d4f70" fill="none" stroke-width="1.1" stroke-linecap="round" stroke-linejoin="round"/></g><line stroke-width="1" stroke="#6a8ba8" stroke-linecap="round" x1="148" y1="34" x2="148" y2="48"/><text x="192.8" y="41.5" fill="#0e2233" font-family="'DM Mono', ui-monospace, monospace" font-size="11" font-weight="400" dominant-baseline="middle" cursor="pointer">Amount</text></g></g></g><path d="M 62 11 H 71 Q 74 11 74 14 V 68 Q 74 71 77 71 H 86" stroke="#6a8ba8" stroke-width="1" stroke-opacity="0.65" stroke-linecap="round" fill="none"/><g><g><g cursor="pointer"><g text-anchor="middle"><rect x="86" y="60" width="190.2" height="22" fill="transparent" stroke="#2d5470" stroke-width="1" rx="3" ry="3"/><rect x="86" y="60" width="62" height="22" fill="rgba(29, 79, 112, 0.06)" rx="3" ry="3"/><g transform="translate(110 64)" cursor="pointer"><path d="M5 2 Q3 2 3 4.5 Q3 6.5 1.5 7 Q3 7.5 3 9.5 Q3 12 5 12" stroke="#1d4f70" fill="none" stroke-width="1.1" stroke-linecap="round" stroke-linejoin="round"/><path d="M9 2 Q11 2 11 4.5 Q11 6.5 12.5 7 Q11 7.5 11 9.5 Q11 12 9 12" stroke="#1d4f70" fill="none" stroke-width="1.1" stroke-linecap="round" stroke-linejoin="round"/></g><line stroke-width="1" stroke="#6a8ba8" stroke-linecap="round" x1="148" y1="64" x2="148" y2="78"/><text x="212.6" y="71.5" fill="#0e2233" font-family="'DM Mono', ui-monospace, monospace" font-size="11" font-weight="400" dominant-baseline="middle" cursor="pointer">BasicAccount</text></g></g><path d="M 276.2 71 H 300.2" stroke="#6a8ba8" stroke-width="1" stroke-opacity="0.65" stroke-linecap="round" fill="none"/><g><g><g text-anchor="middle"><rect x="300.2" y="60" width="163.8" height="22" fill="transparent" stroke="#2d5470" stroke-width="1" rx="3" ry="3"/><rect x="300.2" y="60" width="62" height="22" fill="rgba(29, 79, 112, 0.06)" rx="3" ry="3"/><g transform="translate(324.2 64)" cursor="pointer"><path d="M3.5 3.5 L3.5 6 M5.5 3.5 L5.5 6" stroke="#1d4f70" fill="none" stroke-width="1.1" stroke-linecap="round" stroke-linejoin="round"/><path d="M8.5 3.5 L8.5 6 M10.5 3.5 L10.5 6" stroke="#1d4f70" fill="none" stroke-width="1.1" stroke-linecap="round" stroke-linejoin="round"/><path d="M3 10.5 L11 10.5" stroke="#1d4f70" fill="none" stroke-width="1.1" stroke-linecap="round" stroke-linejoin="round"/></g><line stroke-width="1" stroke="#6a8ba8" stroke-linecap="round" x1="362.2" y1="64" x2="362.2" y2="78"/><text x="413.59999999999997" y="71.5" fill="#0e2233" font-family="'DM Mono', ui-monospace, monospace" font-size="11" font-weight="400" dominant-baseline="middle" cursor="pointer">currency</text></g></g></g><path d="M 276.2 71 H 285.2 Q 288.2 71 288.2 74 V 98 Q 288.2 101 291.2 101 H 300.2" stroke="#6a8ba8" stroke-width="1" stroke-opacity="0.65" stroke-linecap="round" fill="none"/><g><g><g text-anchor="middle"><rect x="300.2" y="90" width="137.39999999999998" height="22" fill="transparent" stroke="#2d5470" stroke-width="1" rx="3" ry="3"/><rect x="300.2" y="90" width="62" height="22" fill="rgba(29, 79, 112, 0.06)" rx="3" ry="3"/><g transform="translate(324.2 94)" cursor="pointer"><path d="M3.5 3.5 L3.5 6 M5.5 3.5 L5.5 6" stroke="#1d4f70" fill="none" stroke-width="1.1" stroke-linecap="round" stroke-linejoin="round"/><path d="M8.5 3.5 L8.5 6 M10.5 3.5 L10.5 6" stroke="#1d4f70" fill="none" stroke-width="1.1" stroke-linecap="round" stroke-linejoin="round"/><path d="M3 10.5 L11 10.5" stroke="#1d4f70" fill="none" stroke-width="1.1" stroke-linecap="round" stroke-linejoin="round"/></g><line stroke-width="1" stroke="#6a8ba8" stroke-linecap="round" x1="362.2" y1="94" x2="362.2" y2="108"/><text x="400.4" y="101.5" fill="#0e2233" font-family="'DM Mono', ui-monospace, monospace" font-size="11" font-weight="400" dominant-baseline="middle" cursor="pointer">iban</text></g></g></g><path d="M 276.2 71 H 285.2 Q 288.2 71 288.2 74 V 128 Q 288.2 131 291.2 131 H 300.2" stroke="#6a8ba8" stroke-width="1" stroke-opacity="0.65" stroke-linecap="round" fill="none"/><g><g><g text-anchor="middle"><rect x="300.2" y="120" width="137.39999999999998" height="22" fill="transparent" stroke="#2d5470" stroke-width="1" rx="3" ry="3"/><rect x="300.2" y="120" width="62" height="22" fill="rgba(29, 79, 112, 0.06)" rx="3" ry="3"/><g transform="translate(324.2 124)" cursor="pointer"><path d="M3.5 3.5 L3.5 6 M5.5 3.5 L5.5 6" stroke="#1d4f70" fill="none" stroke-width="1.1" stroke-linecap="round" stroke-linejoin="round"/><path d="M8.5 3.5 L8.5 6 M10.5 3.5 L10.5 6" stroke="#1d4f70" fill="none" stroke-width="1.1" stroke-linecap="round" stroke-linejoin="round"/><path d="M3 10.5 L11 10.5" stroke="#1d4f70" fill="none" stroke-width="1.1" stroke-linecap="round" stroke-linejoin="round"/></g><line stroke-width="1" stroke="#6a8ba8" stroke-linecap="round" x1="362.2" y1="124" x2="362.2" y2="138"/><text x="400.4" y="131.5" fill="#0e2233" font-family="'DM Mono', ui-monospace, monospace" font-size="11" font-weight="400" dominant-baseline="middle" cursor="pointer">name</text></g></g></g><path d="M 276.2 71 H 285.2 Q 288.2 71 288.2 74 V 158 Q 288.2 161 291.2 161 H 300.2" stroke="#6a8ba8" stroke-width="1" stroke-opacity="0.65" stroke-linecap="round" fill="none"/><g><g><g text-anchor="middle"><rect x="300.2" y="150" width="177" height="22" fill="transparent" stroke="#2d5470" stroke-width="1" rx="3" ry="3"/><rect x="300.2" y="150" width="62" height="22" fill="rgba(29, 79, 112, 0.06)" rx="3" ry="3"/><g transform="translate(324.2 154)" cursor="pointer"><text x="7" y="7.5" text-anchor="middle" dominant-baseline="middle" fill="#1d4f70" font-family="'DM Mono', ui-monospace, monospace" font-size="6.5" font-weight="500" textLength="12">uui</text></g><line stroke-width="1" stroke="#6a8ba8" stroke-linecap="round" x1="362.2" y1="154" x2="362.2" y2="168"/><text x="420.2" y="161.5" fill="#0e2233" font-family="'DM Mono', ui-monospace, monospace" font-size="11" font-weight="400" dominant-baseline="middle" cursor="pointer">resourceId</text></g></g></g></g></g><path d="M 62 11 H 71 Q 74 11 74 14 V 196 Q 74 199 77 199 H 86" stroke="#6a8ba8" stroke-width="1" stroke-opacity="0.65" stroke-linecap="round" fill="none"/><g><g><g cursor="pointer"><g text-anchor="middle"><rect x="86" y="188" width="249.60000000000002" height="22" fill="transparent" stroke="#2d5470" stroke-width="1" rx="3" ry="3"/><rect x="86" y="188" width="62" height="22" fill="rgba(29, 79, 112, 0.06)" rx="3" ry="3"/><g transform="translate(110 192)" cursor="pointer"><path d="M5 2 Q3 2 3 4.5 Q3 6.5 1.5 7 Q3 7.5 3 9.5 Q3 12 5 12" stroke="#1d4f70" fill="none" stroke-width="1.1" stroke-linecap="round" stroke-linejoin="round"/><path d="M9 2 Q11 2 11 4.5 Q11 6.5 12.5 7 Q11 7.5 11 9.5 Q11 12 9 12" stroke="#1d4f70" fill="none" stroke-width="1.1" stroke-linecap="round" stroke-linejoin="round"/></g><line stroke-width="1" stroke="#6a8ba8" stroke-linecap="round" x1="148" y1="192" x2="148" y2="206"/><text x="242.3" y="199.5" fill="#0e2233" font-family="'DM Mono', ui-monospace, monospace" font-size="11" font-weight="400" dominant-baseline="middle" cursor="pointer">BasicAccountsResponse</text></g></g><path d="M 335.6 199 H 359.6" stroke="#6a8ba8" stroke-width="1" stroke-opacity="0.65" stroke-linecap="round" fill="none"/><g><g><g cursor="pointer"><g text-anchor="middle"><rect x="359.6" y="188" width="163.8" height="22" fill="transparent" stroke="#2d5470" stroke-width="1" rx="3" ry="3"/><rect x="359.6" y="188" width="62" height="22" fill="rgba(29, 79, 112, 0.06)" rx="3" ry="3"/><rect x="360.6" y="189" width="2" height="20" fill="#b07512" rx="1" ry="1"/><g transform="translate(383.6 192)" cursor="pointer"><path d="M5 2 L2.5 2 L2.5 12 L5 12" stroke="#1d4f70" fill="none" stroke-width="1.1" stroke-linecap="round" stroke-linejoin="round"/><path d="M9 2 L11.5 2 L11.5 12 L9 12" stroke="#1d4f70" fill="none" stroke-width="1.1" stroke-linecap="round" stroke-linejoin="round"/></g><line stroke-width="1" stroke="#6a8ba8" stroke-linecap="round" x1="421.6" y1="192" x2="421.6" y2="206"/><text x="473" y="199.5" fill="#0e2233" font-family="'DM Mono', ui-monospace, monospace" font-size="11" font-weight="700" dominant-baseline="middle" cursor="pointer">accounts</text></g></g><path d="M 523.4000000000001 199 H 547.4000000000001" stroke="#6a8ba8" stroke-width="1" stroke-opacity="0.65" stroke-linecap="round" fill="none"/><g cursor="pointer"><g><g cursor="pointer"><g text-anchor="middle"><rect x="547.4000000000001" y="188" width="190.20000000000005" height="22" fill="transparent" stroke="#2d5470" stroke-width="1" rx="3" ry="3"/><rect x="547.4000000000001" y="188" width="62" height="22" fill="rgba(29, 79, 112, 0.06)" rx="3" ry="3"/><g transform="translate(571.4000000000001 192)" cursor="pointer"><path d="M5 2 Q3 2 3 4.5 Q3 6.5 1.5 7 Q3 7.5 3 9.5 Q3 12 5 12" stroke="#1d4f70" fill="none" stroke-width="1.1" stroke-linecap="round" stroke-linejoin="round"/><path d="M9 2 Q11 2 11 4.5 Q11 6.5 12.5 7 Q11 7.5 11 9.5 Q11 12 9 12" stroke="#1d4f70" fill="none" stroke-width="1.1" stroke-linecap="round" stroke-linejoin="round"/></g><line stroke-width="1" stroke="#6a8ba8" stroke-linecap="round" x1="609.4000000000001" y1="192" x2="609.4000000000001" y2="206"/><text x="674.0000000000001" y="199.5" fill="#0e2233" font-family="'DM Mono', ui-monospace, monospace" font-size="11" font-weight="700" dominant-baseline="middle" cursor="pointer">BasicAccount</text></g></g><path d="M 737.6000000000001 199 H 761.6000000000001" stroke="#6a8ba8" stroke-width="1" stroke-opacity="0.65" stroke-linecap="round" fill="none"/><g><g><g text-anchor="middle"><rect x="761.6000000000001" y="188" width="163.79999999999995" height="22" fill="transparent" stroke="#2d5470" stroke-width="1" rx="3" ry="3"/><rect x="761.6000000000001" y="188" width="62" height="22" fill="rgba(29, 79, 112, 0.06)" rx="3" ry="3"/><g transform="translate(785.6000000000001 192)" cursor="pointer"><path d="M3.5 3.5 L3.5 6 M5.5 3.5 L5.5 6" stroke="#1d4f70" fill="none" stroke-width="1.1" stroke-linecap="round" stroke-linejoin="round"/><path d="M8.5 3.5 L8.5 6 M10.5 3.5 L10.5 6" stroke="#1d4f70" fill="none" stroke-width="1.1" stroke-linecap="round" stroke-linejoin="round"/><path d="M3 10.5 L11 10.5" stroke="#1d4f70" fill="none" stroke-width="1.1" stroke-linecap="round" stroke-linejoin="round"/></g><line stroke-width="1" stroke="#6a8ba8" stroke-linecap="round" x1="823.6000000000001" y1="192" x2="823.6000000000001" y2="206"/><text x="875.0000000000001" y="199.5" fill="#0e2233" font-family="'DM Mono', ui-monospace, monospace" font-size="11" font-weight="400" dominant-baseline="middle" cursor="pointer">currency</text></g></g></g><path d="M 737.6000000000001 199 H 746.6000000000001 Q 749.6000000000001 199 749.6000000000001 202 V 226 Q 749.6000000000001 229 752.6000000000001 229 H 761.6000000000001" stroke="#6a8ba8" stroke-width="1" stroke-opacity="0.65" stroke-linecap="round" fill="none"/><g><g><g text-anchor="middle"><rect x="761.6000000000001" y="218" width="137.39999999999998" height="22" fill="transparent" stroke="#2d5470" stroke-width="1" rx="3" ry="3"/><rect x="761.6000000000001" y="218" width="62" height="22" fill="rgba(29, 79, 112, 0.06)" rx="3" ry="3"/><g transform="translate(785.6000000000001 222)" cursor="pointer"><path d="M3.5 3.5 L3.5 6 M5.5 3.5 L5.5 6" stroke="#1d4f70" fill="none" stroke-width="1.1" stroke-linecap="round" stroke-linejoin="round"/><path d="M8.5 3.5 L8.5 6 M10.5 3.5 L10.5 6" stroke="#1d4f70" fill="none" stroke-width="1.1" stroke-linecap="round" stroke-linejoin="round"/><path d="M3 10.5 L11 10.5" stroke="#1d4f70" fill="none" stroke-width="1.1" stroke-linecap="round" stroke-linejoin="round"/></g><line stroke-width="1" stroke="#6a8ba8" stroke-linecap="round" x1="823.6000000000001" y1="222" x2="823.6000000000001" y2="236"/><text x="861.8000000000002" y="229.5" fill="#0e2233" font-family="'DM Mono', ui-monospace, monospace" font-size="11" font-weight="400" dominant-baseline="middle" cursor="pointer">iban</text></g></g></g><path d="M 737.6000000000001 199 H 746.6000000000001 Q 749.6000000000001 199 749.6000000000001 202 V 256 Q 749.6000000000001 259 752.6000000000001 259 H 761.6000000000001" stroke="#6a8ba8" stroke-width="1" stroke-opacity="0.65" stroke-linecap="round" fill="none"/><g><g><g text-anchor="middle"><rect x="761.6000000000001" y="248" width="137.39999999999998" height="22" fill="transparent" stroke="#2d5470" stroke-width="1" rx="3" ry="3"/><rect x="761.6000000000001" y="248" width="62" height="22" fill="rgba(29, 79, 112, 0.06)" rx="3" ry="3"/><g transform="translate(785.6000000000001 252)" cursor="pointer"><path d="M3.5 3.5 L3.5 6 M5.5 3.5 L5.5 6" stroke="#1d4f70" fill="none" stroke-width="1.1" stroke-linecap="round" stroke-linejoin="round"/><path d="M8.5 3.5 L8.5 6 M10.5 3.5 L10.5 6" stroke="#1d4f70" fill="none" stroke-width="1.1" stroke-linecap="round" stroke-linejoin="round"/><path d="M3 10.5 L11 10.5" stroke="#1d4f70" fill="none" stroke-width="1.1" stroke-linecap="round" stroke-linejoin="round"/></g><line stroke-width="1" stroke="#6a8ba8" stroke-linecap="round" x1="823.6000000000001" y1="252" x2="823.6000000000001" y2="266"/><text x="861.8000000000002" y="259.5" fill="#0e2233" font-family="'DM Mono', ui-monospace, monospace" font-size="11" font-weight="400" dominant-baseline="middle" cursor="pointer">name</text></g></g></g><path d="M 737.6000000000001 199 H 746.6000000000001 Q 749.6000000000001 199 749.6000000000001 202 V 286 Q 749.6000000000001 289 752.6000000000001 289 H 761.6000000000001" stroke="#6a8ba8" stroke-width="1" stroke-opacity="0.65" stroke-linecap="round" fill="none"/><g><g><g text-anchor="middle"><rect x="761.6000000000001" y="278" width="177" height="22" fill="transparent" stroke="#2d5470" stroke-width="1" rx="3" ry="3"/><rect x="761.6000000000001" y="278" width="62" height="22" fill="rgba(29, 79, 112, 0.06)" rx="3" ry="3"/><g transform="translate(785.6000000000001 282)" cursor="pointer"><text x="7" y="7.5" text-anchor="middle" dominant-baseline="middle" fill="#1d4f70" font-family="'DM Mono', ui-monospace, monospace" font-size="6.5" font-weight="500" textLength="12">uui</text></g><line stroke-width="1" stroke="#6a8ba8" stroke-linecap="round" x1="823.6000000000001" y1="282" x2="823.6000000000001" y2="296"/><text x="881.6000000000001" y="289.5" fill="#0e2233" font-family="'DM Mono', ui-monospace, monospace" font-size="11" font-weight="400" dominant-baseline="middle" cursor="pointer">resourceId</text></g></g></g></g></g></g></g></g></g><path d="M 62 11 H 71 Q 74 11 74 14 V 332 Q 74 335 77 335 H 86" stroke="#6a8ba8" stroke-width="1" stroke-opacity="0.65" stroke-linecap="round" fill="none"/><g><g><g text-anchor="middle"><rect x="86" y="324" width="163.8" height="22" fill="transparent" stroke="#2d5470" stroke-width="1" rx="3" ry="3"/><rect x="86" y="324" width="62" height="22" fill="rgba(29, 79, 112, 0.06)" rx="3" ry="3"/><g transform="translate(110 328)" cursor="pointer"><circle cx="2.5" cy="4" r="0.9" fill="#1d4f70"/><circle cx="2.5" cy="7" r="0.9" fill="#1d4f70"/><circle cx="2.5" cy="10" r="0.9" fill="#1d4f70"/><path d="M5 4 L12 4 M5 7 L12 7 M5 10 L10 10" stroke="#1d4f70" fill="none" stroke-width="1.1" stroke-linecap="round" stroke-linejoin="round"/></g><line stroke-width="1" stroke="#6a8ba8" stroke-linecap="round" x1="148" y1="328" x2="148" y2="342"/><text x="199.4" y="335.5" fill="#0e2233" font-family="'DM Mono', ui-monospace, monospace" font-size="11" font-weight="400" dominant-baseline="middle" cursor="pointer">Category</text></g></g></g><path d="M 62 11 H 71 Q 74 11 74 14 V 362 Q 74 365 77 365 H 86" stroke="#6a8ba8" stroke-width="1" stroke-opacity="0.65" stroke-linecap="round" fill="none"/><g><g><g cursor="pointer"><g text-anchor="middle"><rect x="86" y="354" width="309" height="22" fill="transparent" stroke="#2d5470" stroke-width="1" rx="3" ry="3"/><rect x="86" y="354" width="62" height="22" fill="rgba(29, 79, 112, 0.06)" rx="3" ry="3"/><g transform="translate(110 358)" cursor="pointer"><path d="M5 2 Q3 2 3 4.5 Q3 6.5 1.5 7 Q3 7.5 3 9.5 Q3 12 5 12" stroke="#1d4f70" fill="none" stroke-width="1.1" stroke-linecap="round" stroke-linejoin="round"/><path d="M9 2 Q11 2 11 4.5 Q11 6.5 12.5 7 Q11 7.5 11 9.5 Q11 12 9 12" stroke="#1d4f70" fill="none" stroke-width="1.1" stroke-linecap="round" stroke-linejoin="round"/></g><line stroke-width="1" stroke="#6a8ba8" stroke-linecap="round" x1="148" y1="358" x2="148" y2="372"/><text x="272" y="365.5" fill="#0e2233" font-family="'DM Mono', ui-monospace, monospace" font-size="11" font-weight="400" dominant-baseline="middle" cursor="pointer">ConfirmationOfFundsRequestBody</text></g></g><path d="M 395 365 H 419" stroke="#6a8ba8" stroke-width="1" stroke-opacity="0.65" stroke-linecap="round" fill="none"/><g><g><g text-anchor="middle"><rect x="419" y="354" width="177" height="22" fill="transparent" stroke="#2d5470" stroke-width="1" rx="3" ry="3"/><rect x="419" y="354" width="62" height="22" fill="rgba(29, 79, 112, 0.06)" rx="3" ry="3"/><g transform="translate(443 358)" cursor="pointer"><path d="M3.5 3.5 L3.5 6 M5.5 3.5 L5.5 6" stroke="#1d4f70" fill="none" stroke-width="1.1" stroke-linecap="round" stroke-linejoin="round"/><path d="M8.5 3.5 L8.5 6 M10.5 3.5 L10.5 6" stroke="#1d4f70" fill="none" stroke-width="1.1" stroke-linecap="round" stroke-linejoin="round"/><path d="M3 10.5 L11 10.5" stroke="#1d4f70" fill="none" stroke-width="1.1" stroke-linecap="round" stroke-linejoin="round"/></g><line stroke-width="1" stroke="#6a8ba8" stroke-linecap="round" x1="481" y1="358" x2="481" y2="372"/><text x="539" y="365.5" fill="#0e2233" font-family="'DM Mono', ui-monospace, monospace" font-size="11" font-weight="400" dominant-baseline="middle" cursor="pointer">cardNumber</text></g></g></g><path d="M 395 365 H 404 Q 407 365 407 368 V 392 Q 407 395 410 395 H 419" stroke="#6a8ba8" stroke-width="1" stroke-opacity="0.65" stroke-linecap="round" fill="none"/><g><g cursor="pointer"><g><g cursor="pointer"><g text-anchor="middle"><rect x="419" y="384" width="150.60000000000002" height="22" fill="transparent" stroke="#2d5470" stroke-width="1" rx="3" ry="3"/><rect x="419" y="384" width="62" height="22" fill="rgba(29, 79, 112, 0.06)" rx="3" ry="3"/><rect x="420" y="385" width="2" height="20" fill="#b07512" rx="1" ry="1"/><g transform="translate(443 388)" cursor="pointer"><path d="M5 2 Q3 2 3 4.5 Q3 6.5 1.5 7 Q3 7.5 3 9.5 Q3 12 5 12" stroke="#1d4f70" fill="none" stroke-width="1.1" stroke-linecap="round" stroke-linejoin="round"/><path d="M9 2 Q11 2 11 4.5 Q11 6.5 12.5 7 Q11 7.5 11 9.5 Q11 12 9 12" stroke="#1d4f70" fill="none" stroke-width="1.1" stroke-linecap="round" stroke-linejoin="round"/></g><line stroke-width="1" stroke="#6a8ba8" stroke-linecap="round" x1="481" y1="388" x2="481" y2="402"/><text x="525.8" y="395.5" fill="#0e2233" font-family="'DM Mono', ui-monospace, monospace" font-size="11" font-weight="700" dominant-baseline="middle" cursor="pointer">Amount</text></g></g><path d="M 569.6 395 H 593.6" stroke="#6a8ba8" stroke-width="1" stroke-opacity="0.65" stroke-linecap="round" fill="none"/><g><g><g text-anchor="middle"><rect x="593.6" y="384" width="150.60000000000002" height="22" fill="transparent" stroke="#2d5470" stroke-width="1" rx="3" ry="3"/><rect x="593.6" y="384" width="62" height="22" fill="rgba(29, 79, 112, 0.06)" rx="3" ry="3"/><rect x="594.6" y="385" width="2" height="20" fill="#b07512" rx="1" ry="1"/><g transform="translate(617.6 388)" cursor="pointer"><path d="M5 2 L3.5 10 M9.5 2 L8 10 M2 5 L11 5 M1.5 8 L10.5 8" stroke="#1d4f70" fill="none" stroke-width="1.1" stroke-linecap="round" stroke-linejoin="round"/><circle cx="11.2" cy="11.2" r="0.9" fill="#1d4f70"/></g><line stroke-width="1" stroke="#6a8ba8" stroke-linecap="round" x1="655.6" y1="388" x2="655.6" y2="402"/><text x="700.4" y="395.5" fill="#0e2233" font-family="'DM Mono', ui-monospace, monospace" font-size="11" font-weight="700" dominant-baseline="middle" cursor="pointer">amount</text></g></g></g><path d="M 569.6 395 H 578.6 Q 581.6 395 581.6 398 V 422 Q 581.6 425 584.6 425 H 593.6" stroke="#6a8ba8" stroke-width="1" stroke-opacity="0.65" stroke-linecap="round" fill="none"/><g><g><g text-anchor="middle"><rect x="593.6" y="414" width="163.79999999999995" height="22" fill="transparent" stroke="#2d5470" stroke-width="1" rx="3" ry="3"/><rect x="593.6" y="414" width="62" height="22" fill="rgba(29, 79, 112, 0.06)" rx="3" ry="3"/><rect x="594.6" y="415" width="2" height="20" fill="#b07512" rx="1" ry="1"/><g transform="translate(617.6 418)" cursor="pointer"><path d="M3.5 3.5 L3.5 6 M5.5 3.5 L5.5 6" stroke="#1d4f70" fill="none" stroke-width="1.1" stroke-linecap="round" stroke-linejoin="round"/><path d="M8.5 3.5 L8.5 6 M10.5 3.5 L10.5 6" stroke="#1d4f70" fill="none" stroke-width="1.1" stroke-linecap="round" stroke-linejoin="round"/><path d="M3 10.5 L11 10.5" stroke="#1d4f70" fill="none" stroke-width="1.1" stroke-linecap="round" stroke-linejoin="round"/></g><line stroke-width="1" stroke="#6a8ba8" stroke-linecap="round" x1="655.6" y1="418" x2="655.6" y2="432"/><text x="707" y="425.5" fill="#0e2233" font-family="'DM Mono', ui-monospace, monospace" font-size="11" font-weight="700" dominant-baseline="middle" cursor="pointer">currency</text></g></g></g></g></g></g><path d="M 395 365 H 404 Q 407 365 407 368 V 460 Q 407 463 410 463 H 419" stroke="#6a8ba8" stroke-width="1" stroke-opacity="0.65" stroke-linecap="round" fill="none"/><g><g><g text-anchor="middle"><rect x="419" y="452" width="144" height="22" fill="transparent" stroke="#2d5470" stroke-width="1" rx="3" ry="3"/><rect x="419" y="452" width="62" height="22" fill="rgba(29, 79, 112, 0.06)" rx="3" ry="3"/><g transform="translate(443 456)" cursor="pointer"><path d="M3.5 3.5 L3.5 6 M5.5 3.5 L5.5 6" stroke="#1d4f70" fill="none" stroke-width="1.1" stroke-linecap="round" stroke-linejoin="round"/><path d="M8.5 3.5 L8.5 6 M10.5 3.5 L10.5 6" stroke="#1d4f70" fill="none" stroke-width="1.1" stroke-linecap="round" stroke-linejoin="round"/><path d="M3 10.5 L11 10.5" stroke="#1d4f70" fill="none" stroke-width="1.1" stroke-linecap="round" stroke-linejoin="round"/></g><line stroke-width="1" stroke="#6a8ba8" stroke-linecap="round" x1="481" y1="456" x2="481" y2="470"/><text x="522.5" y="463.5" fill="#0e2233" font-family="'DM Mono', ui-monospace, monospace" font-size="11" font-weight="400" dominant-baseline="middle" cursor="pointer">payee</text></g></g></g><path d="M 395 365 H 404 Q 407 365 407 368 V 490 Q 407 493 410 493 H 419" stroke="#6a8ba8" stroke-width="1" stroke-opacity="0.65" stroke-linecap="round" fill="none"/><g><g cursor="pointer"><g><g cursor="pointer"><g text-anchor="middle"><rect x="419" y="482" width="216.60000000000002" height="22" fill="transparent" stroke="#2d5470" stroke-width="1" rx="3" ry="3"/><rect x="419" y="482" width="62" height="22" fill="rgba(29, 79, 112, 0.06)" rx="3" ry="3"/><rect x="420" y="483" width="2" height="20" fill="#b07512" rx="1" ry="1"/><g transform="translate(443 486)" cursor="pointer"><path d="M5 2 Q3 2 3 4.5 Q3 6.5 1.5 7 Q3 7.5 3 9.5 Q3 12 5 12" stroke="#1d4f70" fill="none" stroke-width="1.1" stroke-linecap="round" stroke-linejoin="round"/><path d="M9 2 Q11 2 11 4.5 Q11 6.5 12.5 7 Q11 7.5 11 9.5 Q11 12 9 12" stroke="#1d4f70" fill="none" stroke-width="1.1" stroke-linecap="round" stroke-linejoin="round"/></g><line stroke-width="1" stroke="#6a8ba8" stroke-linecap="round" x1="481" y1="486" x2="481" y2="500"/><text x="558.8" y="493.5" fill="#0e2233" font-family="'DM Mono', ui-monospace, monospace" font-size="11" font-weight="700" dominant-baseline="middle" cursor="pointer">AccountReference</text></g></g><path d="M 635.6 493 H 659.6" stroke="#6a8ba8" stroke-width="1" stroke-opacity="0.65" stroke-linecap="round" fill="none"/><g><g><g text-anchor="middle"><rect x="659.6" y="482" width="163.79999999999995" height="22" fill="transparent" stroke="#2d5470" stroke-width="1" rx="3" ry="3"/><rect x="659.6" y="482" width="62" height="22" fill="rgba(29, 79, 112, 0.06)" rx="3" ry="3"/><g transform="translate(683.6 486)" cursor="pointer"><path d="M3.5 3.5 L3.5 6 M5.5 3.5 L5.5 6" stroke="#1d4f70" fill="none" stroke-width="1.1" stroke-linecap="round" stroke-linejoin="round"/><path d="M8.5 3.5 L8.5 6 M10.5 3.5 L10.5 6" stroke="#1d4f70" fill="none" stroke-width="1.1" stroke-linecap="round" stroke-linejoin="round"/><path d="M3 10.5 L11 10.5" stroke="#1d4f70" fill="none" stroke-width="1.1" stroke-linecap="round" stroke-linejoin="round"/></g><line stroke-width="1" stroke="#6a8ba8" stroke-linecap="round" x1="721.6" y1="486" x2="721.6" y2="500"/><text x="773" y="493.5" fill="#0e2233" font-family="'DM Mono', ui-monospace, monospace" font-size="11" font-weight="400" dominant-baseline="middle" cursor="pointer">currency</text></g></g></g><path d="M 635.6 493 H 644.6 Q 647.6 493 647.6 496 V 520 Q 647.6 523 650.6 523 H 659.6" stroke="#6a8ba8" stroke-width="1" stroke-opacity="0.65" stroke-linecap="round" fill="none"/><g><g><g text-anchor="middle"><rect x="659.6" y="512" width="137.39999999999998" height="22" fill="transparent" stroke="#2d5470" stroke-width="1" rx="3" ry="3"/><rect x="659.6" y="512" width="62" height="22" fill="rgba(29, 79, 112, 0.06)" rx="3" ry="3"/><rect x="660.6" y="513" width="2" height="20" fill="#b07512" rx="1" ry="1"/><g transform="translate(683.6 516)" cursor="pointer"><path d="M3.5 3.5 L3.5 6 M5.5 3.5 L5.5 6" stroke="#1d4f70" fill="none" stroke-width="1.1" stroke-linecap="round" stroke-linejoin="round"/><path d="M8.5 3.5 L8.5 6 M10.5 3.5 L10.5 6" stroke="#1d4f70" fill="none" stroke-width="1.1" stroke-linecap="round" stroke-linejoin="round"/><path d="M3 10.5 L11 10.5" stroke="#1d4f70" fill="none" stroke-width="1.1" stroke-linecap="round" stroke-linejoin="round"/></g><line stroke-width="1" stroke="#6a8ba8" stroke-linecap="round" x1="721.6" y1="516" x2="721.6" y2="530"/><text x="759.8000000000001" y="523.5" fill="#0e2233" font-family="'DM Mono', ui-monospace, monospace" font-size="11" font-weight="700" dominant-baseline="middle" cursor="pointer">iban</text></g></g></g></g></g></g></g></g><path d="M 62 11 H 71 Q 74 11 74 14 V 566 Q 74 569 77 569 H 86" stroke="#6a8ba8" stroke-width="1" stroke-opacity="0.65" stroke-linecap="round" fill="none"/><g><g cursor="pointer"><g text-anchor="middle"><rect x="86" y="558" width="282.6" height="22" fill="transparent" stroke="#2d5470" stroke-width="1" rx="3" ry="3"/><rect x="86" y="558" width="62" height="22" fill="rgba(29, 79, 112, 0.06)" rx="3" ry="3"/><g transform="translate(110 562)" cursor="pointer"><path d="M5 2 Q3 2 3 4.5 Q3 6.5 1.5 7 Q3 7.5 3 9.5 Q3 12 5 12" stroke="#1d4f70" fill="none" stroke-width="1.1" stroke-linecap="round" stroke-linejoin="round"/><path d="M9 2 Q11 2 11 4.5 Q11 6.5 12.5 7 Q11 7.5 11 9.5 Q11 12 9 12" stroke="#1d4f70" fill="none" stroke-width="1.1" stroke-linecap="round" stroke-linejoin="round"/></g><line stroke-width="1" stroke="#6a8ba8" stroke-linecap="round" x1="148" y1="562" x2="148" y2="576"/><text x="258.8" y="569.5" fill="#0e2233" font-family="'DM Mono', ui-monospace, monospace" font-size="11" font-weight="400" dominant-baseline="middle" cursor="pointer">FundsConfirmationsResponse</text></g></g></g><path d="M 62 11 H 71 Q 74 11 74 14 V 596 Q 74 599 77 599 H 86" stroke="#6a8ba8" stroke-width="1" stroke-opacity="0.65" stroke-linecap="round" fill="none"/><g><g cursor="pointer"><g><g text-anchor="middle"><rect x="86" y="588" width="177" height="22" fill="transparent" stroke="#2d5470" stroke-width="1" rx="3" ry="3"/><rect x="86" y="588" width="62" height="22" fill="rgba(29, 79, 112, 0.06)" rx="3" ry="3"/><g transform="translate(110 592)" cursor="pointer"><path d="M5 2 Q3 2 3 4.5 Q3 6.5 1.5 7 Q3 7.5 3 9.5 Q3 12 5 12" stroke="#1d4f70" fill="none" stroke-width="1.1" stroke-linecap="round" stroke-linejoin="round"/><path d="M9 2 Q11 2 11 4.5 Q11 6.5 12.5 7 Q11 7.5 11 9.5 Q11 12 9 12" stroke="#1d4f70" fill="none" stroke-width="1.1" stroke-linecap="round" stroke-linejoin="round"/></g><line stroke-width="1" stroke="#6a8ba8" stroke-linecap="round" x1="148" y1="592" x2="148" y2="606"/><text x="206" y="599.5" fill="#0e2233" font-family="'DM Mono', ui-monospace, monospace" font-size="11" font-weight="400" dominant-baseline="middle" cursor="pointer">TPPMessage</text></g></g></g></g><path d="M 62 11 H 71 Q 74 11 74 14 V 626 Q 74 629 77 629 H 86" stroke="#6a8ba8" stroke-width="1" stroke-opacity="0.65" stroke-linecap="round" fill="none"/><g><g cursor="pointer"><g text-anchor="middle"><rect x="86" y="618" width="183.6" height="22" fill="transparent" stroke="#2d5470" stroke-width="1" rx="3" ry="3"/><rect x="86" y="618" width="62" height="22" fill="rgba(29, 79, 112, 0.06)" rx="3" ry="3"/><g transform="translate(110 622)" cursor="pointer"><path d="M5 2 Q3 2 3 4.5 Q3 6.5 1.5 7 Q3 7.5 3 9.5 Q3 12 5 12" stroke="#1d4f70" fill="none" stroke-width="1.1" stroke-linecap="round" stroke-linejoin="round"/><path d="M9 2 Q11 2 11 4.5 Q11 6.5 12.5 7 Q11 7.5 11 9.5 Q11 12 9 12" stroke="#1d4f70" fill="none" stroke-width="1.1" stroke-linecap="round" stroke-linejoin="round"/></g><line stroke-width="1" stroke="#6a8ba8" stroke-linecap="round" x1="148" y1="622" x2="148" y2="636"/><text x="209.3" y="629.5" fill="#0e2233" font-family="'DM Mono', ui-monospace, monospace" font-size="11" font-weight="400" dominant-baseline="middle" cursor="pointer">TPPMessages</text></g></g></g></g></svg>